<svg xmlns="http://www.w3.org/2000/svg" xmlns:xlink="http://www.w3.org/1999/xlink" width="500" zoomAndPan="magnify" viewBox="0 0 375 374.999991" height="500" preserveAspectRatio="xMidYMid meet" version="1.0"><defs><clipPath id="973ed6676e"><path d="M 32 0.800781 L 250 0.800781 L 250 198 L 32 198 Z M 32 0.800781 " clip-rule="nonzero"/></clipPath><clipPath id="445f29c885"><path d="M 0.800781 43 L 223 43 L 223 288.078125 L 0.800781 288.078125 Z M 0.800781 43 " clip-rule="nonzero"/></clipPath><clipPath id="7d2ec578e9"><path d="M 35 85 L 249 85 L 249 288.078125 L 35 288.078125 Z M 35 85 " clip-rule="nonzero"/></clipPath><clipPath id="b8f33a81c0"><path d="M 0.800781 0.800781 L 219 0.800781 L 219 230 L 0.800781 230 Z M 0.800781 0.800781 " clip-rule="nonzero"/></clipPath><clipPath id="da4db04ece"><path d="M 0.800781 118 L 76 118 L 76 124 L 0.800781 124 Z M 0.800781 118 " clip-rule="nonzero"/></clipPath><clipPath id="52fe462ebe"><path d="M 0.800781 106 L 40 106 L 40 112 L 0.800781 112 Z M 0.800781 106 " clip-rule="nonzero"/></clipPath><clipPath id="a22d977cd4"><path d="M 0.800781 145 L 67 145 L 67 152 L 0.800781 152 Z M 0.800781 145 " clip-rule="nonzero"/></clipPath><clipPath id="1b1fdec224"><path d="M 0.800781 174 L 37 174 L 37 180 L 0.800781 180 Z M 0.800781 174 " clip-rule="nonzero"/></clipPath><clipPath id="f91256c1a9"><path d="M 0.800781 163 L 28 163 L 28 169 L 0.800781 169 Z M 0.800781 163 " clip-rule="nonzero"/></clipPath><clipPath id="6204ddb64d"><path d="M 0.800781 119 L 71 119 L 71 197 L 0.800781 197 Z M 0.800781 119 " clip-rule="nonzero"/></clipPath><clipPath id="3f541dc643"><path d="M 121 0.800781 L 127 0.800781 L 127 78 L 121 78 Z M 121 0.800781 " clip-rule="nonzero"/></clipPath><clipPath id="2297fc76de"><path d="M 151 39 L 156 39 L 156 45 L 151 45 Z M 151 39 " clip-rule="nonzero"/></clipPath><clipPath id="6883da7c38"><path d="M 150.566406 42.710938 L 151.855469 38.632812 L 155.964844 39.929688 L 154.675781 44.007812 Z M 150.566406 42.710938 " clip-rule="nonzero"/></clipPath><clipPath id="425723edf6"><path d="M 151.210938 40.671875 L 155.949219 39.925781 L 154.660156 44.003906 Z M 151.210938 40.671875 " clip-rule="nonzero"/></clipPath><clipPath id="8f64d5eef3"><path d="M 0.0390625 0.921875 L 5 0.921875 L 5 5.238281 L 0.0390625 5.238281 Z M 0.0390625 0.921875 " clip-rule="nonzero"/></clipPath><clipPath id="50a27d5a42"><path d="M -0.433594 3.710938 L 0.855469 -0.367188 L 4.964844 0.929688 L 3.675781 5.007812 Z M -0.433594 3.710938 " clip-rule="nonzero"/></clipPath><clipPath id="c959bad091"><path d="M 0.210938 1.671875 L 4.949219 0.925781 L 3.660156 5.003906 Z M 0.210938 1.671875 " clip-rule="nonzero"/></clipPath><clipPath id="1f6486dcf7"><rect x="0" width="5" y="0" height="6"/></clipPath><clipPath id="d739f88941"><path d="M 162 103 L 303.679688 103 L 303.679688 163 L 162 163 Z M 162 103 " clip-rule="nonzero"/></clipPath><clipPath id="6ec54eb731"><path d="M 282 122 L 303.679688 122 L 303.679688 144 L 282 144 Z M 282 122 " clip-rule="nonzero"/></clipPath><clipPath id="748603888b"><rect x="0" width="304" y="0" height="289"/></clipPath></defs><rect x="-37.5" width="450" fill="#ffffff" y="-37.499999" height="449.999989" fill-opacity="1"/><rect x="-37.5" width="450" fill="#010102" y="-37.499999" height="449.999989" fill-opacity="1"/><g transform="matrix(1, 0, 0, 1, 34, 34)"><g clip-path="url(#748603888b)"><g clip-path="url(#973ed6676e)"><path stroke-linecap="butt" transform="matrix(0.919077, 0.919077, -0.919077, 0.919077, 126.037161, 62.77475)" fill="none" stroke-linejoin="miter" d="M 0.000320519 5.999516 L 44.593286 5.999516 " stroke="#ffffff" stroke-width="12" stroke-opacity="1" stroke-miterlimit="4"/></g><g clip-path="url(#445f29c885)"><path stroke-linecap="butt" transform="matrix(0.919077, 0.919077, -0.919077, 0.919077, 60.701142, 126.287573)" fill="none" stroke-linejoin="miter" d="M -0.000235946 5.998871 L 85.817422 6.000996 " stroke="#ffffff" stroke-width="12" stroke-opacity="1" stroke-miterlimit="4"/></g><g clip-path="url(#7d2ec578e9)"><path stroke-linecap="butt" transform="matrix(-0.919077, 0.919077, -0.919077, -0.919077, 166.174963, 179.685488)" fill="none" stroke-linejoin="miter" d="M 0.000648986 5.999725 L 40.364678 5.999725 " stroke="#ffffff" stroke-width="12" stroke-opacity="1" stroke-miterlimit="4"/></g><g clip-path="url(#b8f33a81c0)"><path stroke-linecap="butt" transform="matrix(-0.919077, 0.919077, -0.919077, -0.919077, 135.366853, 72.039505)" fill="none" stroke-linejoin="miter" d="M -0.000422521 6.001324 L 81.156905 6.001324 " stroke="#ffffff" stroke-width="12" stroke-opacity="1" stroke-miterlimit="4"/></g><path stroke-linecap="butt" transform="matrix(-0.91289, 0.925223, -0.925223, -0.91289, 135.257327, 95.683327)" fill="none" stroke-linejoin="miter" d="M 0.0000107464 5.998866 L 36.276171 5.999986 " stroke="#5ce1e6" stroke-width="12" stroke-opacity="1" stroke-miterlimit="4"/><path stroke-linecap="butt" transform="matrix(-0.918644, 0.91951, -0.91951, -0.918644, 158.644553, 163.070337)" fill="none" stroke-linejoin="miter" d="M -0.000700274 5.999165 L 32.315604 5.999499 " stroke="#5ce1e6" stroke-width="12" stroke-opacity="1" stroke-miterlimit="4"/><path stroke-linecap="butt" transform="matrix(-0.921052, -0.917098, 0.917098, -0.921052, 144.016273, 126.41976)" fill="none" stroke-linejoin="miter" d="M -0.000955282 5.999774 L 32.612934 5.999809 " stroke="#5ce1e6" stroke-width="12" stroke-opacity="1" stroke-miterlimit="4"/><path stroke-linecap="butt" transform="matrix(-0.933455, -0.904471, 0.904471, -0.933455, 147.478621, 173.115431)" fill="none" stroke-linejoin="miter" d="M -0.000937909 5.999921 L 60.229586 5.999712 " stroke="#5ce1e6" stroke-width="12" stroke-opacity="1" stroke-miterlimit="4"/><path stroke-linecap="butt" transform="matrix(-0.910799, -0.927281, 0.927281, -0.910799, 128.125898, 192.062612)" fill="none" stroke-linejoin="miter" d="M -0.000892403 6.001087 L 31.324247 6.000711 " stroke="#5ce1e6" stroke-width="12" stroke-opacity="1" stroke-miterlimit="4"/><path stroke-linecap="butt" transform="matrix(1.299771, 0, 0, 1.299771, 50.143013, 90.588732)" fill="none" stroke-linejoin="miter" d="M 0.00116842 1.999404 L 40.14044 1.999404 " stroke="#ffffff" stroke-width="4" stroke-opacity="1" stroke-miterlimit="4"/><g clip-path="url(#da4db04ece)"><path stroke-linecap="butt" transform="matrix(1.299771, -0.000000000000001451, 0.000000000000001451, 1.299771, 3.500002, 118.223153)" fill="none" stroke-linejoin="miter" d="M -0.00000156758 2.001172 L 53.122328 2.001172 " stroke="#ffffff" stroke-width="4" stroke-opacity="1" stroke-miterlimit="4"/></g><path stroke-linecap="butt" transform="matrix(1.299771, 0, 0, 1.299771, 60.283698, 99.838252)" fill="none" stroke-linejoin="miter" d="M 0.00112169 1.999773 L 31.638297 1.999773 " stroke="#ffffff" stroke-width="4" stroke-opacity="1" stroke-miterlimit="4"/><g clip-path="url(#52fe462ebe)"><path stroke-linecap="butt" transform="matrix(1.299771, 0.000000000000002861, -0.000000000000002861, 1.299771, 3.500002, 106.154279)" fill="none" stroke-linejoin="miter" d="M -0.00000156758 2.000065 L 25.82185 2.000065 " stroke="#ffffff" stroke-width="4" stroke-opacity="1" stroke-miterlimit="4"/></g><path stroke-linecap="butt" transform="matrix(1.299771, 0, 0, 1.299771, 7.953779, 131.498901)" fill="none" stroke-linejoin="miter" d="M 14.99913 1.999394 L 44.923264 1.999394 " stroke="#ffffff" stroke-width="4" stroke-opacity="1" stroke-miterlimit="4"/><path stroke-linecap="round" transform="matrix(1.299771, 0, 0, 1.299771, 7.953779, 131.498901)" fill-opacity="1" fill="#ffffff" fill-rule="nonzero" stroke-linejoin="round" d="M 2.001051 1.999394 C 2.001051 -1.312487 4.684816 -3.999257 7.999702 -3.999257 C 11.314588 -3.999257 14.001359 -1.312487 14.001359 1.999394 C 14.001359 5.31428 11.314588 8.001051 7.999702 8.001051 C 4.684816 8.001051 2.001051 5.31428 2.001051 1.999394 " stroke="#ffffff" stroke-width="4" stroke-opacity="1" stroke-miterlimit="4"/><g clip-path="url(#a22d977cd4)"><path stroke-linecap="butt" transform="matrix(1.299771, 0.000000000000003184, -0.000000000000003184, 1.299771, 3.500002, 145.981532)" fill="none" stroke-linejoin="miter" d="M -0.00000156758 2.000736 L 46.408406 2.000736 " stroke="#ffffff" stroke-width="4" stroke-opacity="1" stroke-miterlimit="4"/></g><path stroke-linecap="butt" transform="matrix(1.299771, 0, 0, 1.299771, 47.03621, 174.142228)" fill="none" stroke-linejoin="miter" d="M 14.998822 2.000321 L 34.626674 2.000321 " stroke="#ffffff" stroke-width="4" stroke-opacity="1" stroke-miterlimit="4"/><path stroke-linecap="round" transform="matrix(1.299771, 0, 0, 1.299771, 47.03621, 174.142228)" fill-opacity="1" fill="#ffffff" fill-rule="nonzero" stroke-linejoin="round" d="M 2.000743 2.000321 C 2.000743 -1.314565 4.687514 -4.001336 7.999394 -4.001336 C 11.31428 -4.001336 14.001051 -1.314565 14.001051 2.000321 C 14.001051 5.315207 11.31428 7.998972 7.999394 7.998972 C 4.687514 7.998972 2.000743 5.315207 2.000743 2.000321 " stroke="#ffffff" stroke-width="4" stroke-opacity="1" stroke-miterlimit="4"/><path stroke-linecap="butt" transform="matrix(1.299771, 0, 0, 1.299771, 47.622456, 158.533147)" fill="none" stroke-linejoin="miter" d="M -0.00104802 2.000094 L 22.010035 2.000094 " stroke="#ffffff" stroke-width="4" stroke-opacity="1" stroke-miterlimit="4"/><g clip-path="url(#1b1fdec224)"><path stroke-linecap="butt" transform="matrix(1.299771, 0.000000000000006385, -0.000000000000006385, 1.299771, 3.500002, 174.790523)" fill="none" stroke-linejoin="miter" d="M -0.00000156758 2.00043 L 23.144095 2.00043 " stroke="#ffffff" stroke-width="4" stroke-opacity="1" stroke-miterlimit="4"/></g><g clip-path="url(#f91256c1a9)"><path stroke-linecap="butt" transform="matrix(1.299771, 0, 0, 1.299771, 3.500002, 163.481388)" fill="none" stroke-linejoin="miter" d="M -0.00000156758 2.000847 L 16.340012 2.000847 " stroke="#ffffff" stroke-width="4" stroke-opacity="1" stroke-miterlimit="4"/></g><path stroke-linecap="butt" transform="matrix(0.894905, -0.94263, 0.94263, 0.894905, 33.654922, 107.726495)" fill="none" stroke-linejoin="miter" d="M -0.00021404 1.999016 L 18.685643 1.999648 " stroke="#ffffff" stroke-width="4" stroke-opacity="1" stroke-miterlimit="4"/><path stroke-linecap="butt" transform="matrix(0.926689, -0.911402, 0.911402, 0.926689, 40.710502, 118.962255)" fill="none" stroke-linejoin="miter" d="M 0.000597626 2.001423 L 21.107748 2.00014 " stroke="#ffffff" stroke-width="4" stroke-opacity="1" stroke-miterlimit="4"/><path stroke-linecap="butt" transform="matrix(0.922718, -0.915421, 0.915421, 0.922718, 29.653431, 176.263)" fill="none" stroke-linejoin="miter" d="M -0.000453303 2.000568 L 19.435805 1.999917 " stroke="#ffffff" stroke-width="4" stroke-opacity="1" stroke-miterlimit="4"/><g clip-path="url(#6204ddb64d)"><path stroke-linecap="butt" transform="matrix(0.916554, -0.921593, 0.921593, 0.916554, 21.026021, 164.935685)" fill="none" stroke-linejoin="miter" d="M 0.000621045 2.00143 L 19.734319 2.000268 " stroke="#ffffff" stroke-width="4" stroke-opacity="1" stroke-miterlimit="4"/></g><path stroke-linecap="butt" transform="matrix(0, 1.299771, -1.299771, 0, 112.161519, 11.370474)" fill="none" stroke-linejoin="miter" d="M 15.000111 1.999597 L 44.605682 1.999597 " stroke="#ffffff" stroke-width="4" stroke-opacity="1" stroke-miterlimit="4"/><path stroke-linecap="round" transform="matrix(0, 1.299771, -1.299771, 0, 112.161519, 11.370474)" fill-opacity="1" fill="#ffffff" fill-rule="nonzero" stroke-linejoin="round" d="M 1.999025 1.999597 C 1.999025 -1.312284 4.685796 -3.999055 8.000683 -3.999055 C 11.312563 -3.999055 13.999334 -1.312284 13.999334 1.999597 C 13.999334 5.314483 11.312563 8.001254 8.000683 8.001254 C 4.685796 8.001254 1.999025 5.314483 1.999025 1.999597 " stroke="#ffffff" stroke-width="4" stroke-opacity="1" stroke-miterlimit="4"/><g clip-path="url(#3f541dc643)"><path stroke-linecap="butt" transform="matrix(0, 1.299771, -1.299771, 0, 126.278568, 3.500789)" fill="none" stroke-linejoin="miter" d="M -0.000606686 1.99949 L 54.65745 1.99949 " stroke="#ffffff" stroke-width="4" stroke-opacity="1" stroke-miterlimit="4"/></g><path stroke-linecap="butt" transform="matrix(0.00000000226853, 1.299771, -1.299771, 0.00000000226853, 137.768084, 13.162978)" fill="none" stroke-linejoin="miter" d="M 0.000834418 2.000441 L 52.182493 2.000441 " stroke="#ffffff" stroke-width="4" stroke-opacity="1" stroke-miterlimit="4"/><path stroke-linecap="butt" transform="matrix(0, 1.299771, -1.299771, 0, 155.704685, 15.752034)" fill="none" stroke-linejoin="miter" d="M 0.00144031 1.999749 L 18.92905 1.999749 " stroke="#ffffff" stroke-width="4" stroke-opacity="1" stroke-miterlimit="4"/><path stroke-linecap="butt" transform="matrix(-1.011838, 0.815837, -0.815837, -1.011838, 154.732263, 43.873066)" fill="none" stroke-linejoin="miter" d="M -0.00142105 2.000568 L 18.178228 2.000173 " stroke="#ffffff" stroke-width="4" stroke-opacity="1" stroke-miterlimit="4"/><g clip-path="url(#2297fc76de)"><g clip-path="url(#6883da7c38)"><g clip-path="url(#425723edf6)"><g transform="matrix(1, 0, 0, 1, 151, 39)"><g clip-path="url(#1f6486dcf7)"><g clip-path="url(#8f64d5eef3)"><g clip-path="url(#50a27d5a42)"><g clip-path="url(#c959bad091)"><path fill="#ffffff" d="M -0.433594 3.710938 L 0.855469 -0.367188 L 4.949219 0.925781 L 3.660156 5.003906 Z M -0.433594 3.710938 " fill-opacity="1" fill-rule="nonzero"/></g></g></g></g></g></g></g></g><path stroke-linecap="butt" transform="matrix(-0.919472, 0.918682, -0.918682, -0.919472, 112.372587, 68.908789)" fill="none" stroke-linejoin="miter" d="M 0.000291333 1.999782 L 12.538345 1.998637 " stroke="#ffffff" stroke-width="4" stroke-opacity="1" stroke-miterlimit="4"/><path stroke-linecap="butt" transform="matrix(-0.919077, -0.919077, 0.919077, -0.919077, 108.587535, 88.833886)" fill="none" stroke-linejoin="miter" d="M -0.000247166 1.999853 L 12.312546 1.999853 " stroke="#ffffff" stroke-width="4" stroke-opacity="1" stroke-miterlimit="4"/><path stroke-linecap="butt" transform="matrix(0, 1.299771, -1.299771, 0, 129.702259, 207.276758)" fill="none" stroke-linejoin="miter" d="M 0.000450844 2.000888 L 46.126357 2.000888 " stroke="#ffffff" stroke-width="4" stroke-opacity="1" stroke-miterlimit="4"/><path stroke-linecap="round" transform="matrix(0, 1.299771, -1.299771, 0, 129.702259, 207.276758)" fill-opacity="1" fill="#ffffff" fill-rule="nonzero" stroke-linejoin="round" d="M 59.124437 2.000888 C 59.124437 5.312768 56.437666 7.999539 53.125785 7.999539 C 49.810899 7.999539 47.124128 5.312768 47.124128 2.000888 C 47.124128 -1.313999 49.810899 -4.00077 53.125785 -4.00077 C 56.437666 -4.00077 59.124437 -1.313999 59.124437 2.000888 " stroke="#ffffff" stroke-width="4" stroke-opacity="1" stroke-miterlimit="4"/><path stroke-linecap="butt" transform="matrix(0, 1.299771, -1.299771, 0, 140.041259, 217.959203)" fill="none" stroke-linejoin="miter" d="M 0.00133473 2.000238 L 37.754373 2.000238 " stroke="#ffffff" stroke-width="4" stroke-opacity="1" stroke-miterlimit="4"/><path stroke-linecap="butt" transform="matrix(0, 1.299771, -1.299771, 0, 113.07517, 239.286153)" fill="none" stroke-linejoin="miter" d="M -0.000767061 1.999281 L 20.745071 1.999281 " stroke="#ffffff" stroke-width="4" stroke-opacity="1" stroke-miterlimit="4"/><path stroke-linecap="butt" transform="matrix(0, 1.299771, -1.299771, 0, 99.744565, 233.231251)" fill="none" stroke-linejoin="miter" d="M -0.00060203 2.000378 L 25.803218 2.000378 " stroke="#ffffff" stroke-width="4" stroke-opacity="1" stroke-miterlimit="4"/><path stroke-linecap="butt" transform="matrix(0, 1.299771, -1.299771, 0, 115.420399, 193.389322)" fill="none" stroke-linejoin="miter" d="M 0.00100259 2.000419 L 20.226918 2.000419 " stroke="#ffffff" stroke-width="4" stroke-opacity="1" stroke-miterlimit="4"/><path stroke-linecap="butt" transform="matrix(0, 1.299771, -1.299771, 0, 154.384656, 186.88064)" fill="none" stroke-linejoin="miter" d="M -0.00133381 1.999967 L 14.033588 1.999967 " stroke="#ffffff" stroke-width="4" stroke-opacity="1" stroke-miterlimit="4"/><path stroke-linecap="butt" transform="matrix(-0.91018, 0.927889, -0.927889, -0.91018, 115.266694, 219.567601)" fill="none" stroke-linejoin="miter" d="M -0.000221318 2.001035 L 18.284957 1.998694 " stroke="#ffffff" stroke-width="4" stroke-opacity="1" stroke-miterlimit="4"/><path stroke-linecap="butt" transform="matrix(-0.91999, 0.918163, -0.918163, -0.91999, 128.591219, 225.751731)" fill="none" stroke-linejoin="miter" d="M -0.00032843 2.001405 L 18.13098 2.000378 " stroke="#ffffff" stroke-width="4" stroke-opacity="1" stroke-miterlimit="4"/><path stroke-linecap="butt" transform="matrix(-0.903627, 0.934272, -0.934272, -0.903627, 154.473161, 204.73534)" fill="none" stroke-linejoin="miter" d="M 0.000429357 1.998673 L 17.454092 2.000645 " stroke="#ffffff" stroke-width="4" stroke-opacity="1" stroke-miterlimit="4"/><path stroke-linecap="butt" transform="matrix(1.299771, -0.000000000000003385, 0.000000000000003385, 1.299771, 149.674025, 91.521955)" fill="none" stroke-linejoin="miter" d="M 0.00135102 1.999689 L 21.486502 1.999689 " stroke="#ffffff" stroke-width="4" stroke-opacity="1" stroke-miterlimit="4"/><g clip-path="url(#d739f88941)"><path stroke-linecap="butt" transform="matrix(1.299771, -0.00144355, 0.00144355, 1.299771, 191.864688, 130.863086)" fill="none" stroke-linejoin="miter" d="M -0.000296809 1.9987 L 70.883609 1.999286 " stroke="#ffffff" stroke-width="4" stroke-opacity="1" stroke-miterlimit="4"/></g><path fill="#ffffff" d="M 300.898438 133.339844 C 300.902344 137.648438 297.414062 141.144531 293.109375 141.148438 C 288.800781 141.152344 285.304688 137.664062 285.300781 133.359375 C 285.296875 129.050781 288.785156 125.554688 293.089844 125.550781 C 297.398438 125.546875 300.894531 129.035156 300.898438 133.339844 " fill-opacity="1" fill-rule="nonzero"/><g clip-path="url(#6ec54eb731)"><path stroke-linecap="round" transform="matrix(1.299771, -0.00144355, 0.00144355, 1.299771, 191.864688, 130.863086)" fill="none" stroke-linejoin="round" d="M 83.884702 1.998698 C 83.884026 5.313586 81.197275 8.000379 77.885393 7.999706 C 74.570506 7.99903 71.883712 5.312279 71.884385 2.000397 C 71.885061 -1.31449 74.571812 -4.001284 77.883694 -4.000611 C 81.198582 -3.999935 83.885375 -1.313184 83.884702 1.998698 " stroke="#ffffff" stroke-width="4" stroke-opacity="1" stroke-miterlimit="4"/></g><path stroke-linecap="butt" transform="matrix(1.299771, 0, 0, 1.299771, 153.913855, 158.619471)" fill="none" stroke-linejoin="miter" d="M 0.000159366 2.498683 L 25.981292 2.498683 " stroke="#5ce1e6" stroke-width="5" stroke-opacity="1" stroke-miterlimit="4"/><path stroke-linecap="butt" transform="matrix(0.896243, -0.941358, 0.941358, 0.896243, 140.754723, 183.95996)" fill="none" stroke-linejoin="miter" d="M -0.00119578 2.000374 L 56.383892 2.000828 " stroke="#ffffff" stroke-width="4" stroke-opacity="1" stroke-miterlimit="4"/></g></g></svg>