<svg xmlns="http://www.w3.org/2000/svg" xmlns:xlink="http://www.w3.org/1999/xlink" width="500" zoomAndPan="magnify" viewBox="0 0 375 374.999991" height="500" preserveAspectRatio="xMidYMid meet" version="1.0"><defs><clipPath id="9a68f5fb01"><path d="M 185 73 L 190 73 L 190 79 L 185 79 Z M 185 73 " clip-rule="nonzero"/></clipPath><clipPath id="d2b0c4a131"><path d="M 184.5625 76.710938 L 185.851562 72.632812 L 189.960938 73.933594 L 188.671875 78.011719 Z M 184.5625 76.710938 " clip-rule="nonzero"/></clipPath><clipPath id="de0196463c"><path d="M 185.207031 74.671875 L 189.945312 73.925781 L 188.65625 78.003906 Z M 185.207031 74.671875 " clip-rule="nonzero"/></clipPath><clipPath id="094869b232"><path d="M 0.0390625 0.921875 L 5 0.921875 L 5 5.238281 L 0.0390625 5.238281 Z M 0.0390625 0.921875 " clip-rule="nonzero"/></clipPath><clipPath id="bec624c971"><path d="M -0.4375 3.710938 L 0.851562 -0.367188 L 4.960938 0.933594 L 3.671875 5.011719 Z M -0.4375 3.710938 " clip-rule="nonzero"/></clipPath><clipPath id="e364bb03db"><path d="M 0.207031 1.671875 L 4.945312 0.925781 L 3.65625 5.003906 Z M 0.207031 1.671875 " clip-rule="nonzero"/></clipPath><clipPath id="4a11e777f0"><rect x="0" width="5" y="0" height="6"/></clipPath></defs><path stroke-linecap="butt" transform="matrix(0.53033, 0.53033, -0.53033, 0.53033, 160.094056, 96.713826)" fill="none" stroke-linejoin="miter" d="M 0.000671764 10.497365 L 77.281555 10.497365 " stroke="#010102" stroke-width="21" stroke-opacity="1" stroke-miterlimit="4"/><path stroke-linecap="butt" transform="matrix(0.53033, 0.53033, -0.53033, 0.53033, 94.755505, 160.232728)" fill="none" stroke-linejoin="miter" d="M 0.0000459094 10.499177 L 148.720816 10.499177 " stroke="#010102" stroke-width="21" stroke-opacity="1" stroke-miterlimit="4"/><path stroke-linecap="butt" transform="matrix(-0.53033, 0.53033, -0.53033, -0.53033, 200.224854, 213.741226)" fill="none" stroke-linejoin="miter" d="M -0.000704479 10.500965 L 69.951311 10.500965 " stroke="#010102" stroke-width="21" stroke-opacity="1" stroke-miterlimit="4"/><path stroke-linecap="butt" transform="matrix(-0.53033, 0.53033, -0.53033, -0.53033, 169.417361, 106.094964)" fill="none" stroke-linejoin="miter" d="M 0.00196542 10.500372 L 140.649932 10.500372 " stroke="#010102" stroke-width="21" stroke-opacity="1" stroke-miterlimit="4"/><path stroke-linecap="butt" transform="matrix(0.75, 0, 0, 0.75, 84.14302, 124.563287)" fill="none" stroke-linejoin="miter" d="M 0.0020153 3.498951 L 69.56452 3.498951 " stroke="#010102" stroke-width="7" stroke-opacity="1" stroke-miterlimit="4"/><path stroke-linecap="butt" transform="matrix(0.75, -0.000000000000000651, 0.000000000000000651, 0.75, 37.500002, 152.197694)" fill="none" stroke-linejoin="miter" d="M -0.00000271667 3.502033 L 92.062503 3.502033 " stroke="#010102" stroke-width="7" stroke-opacity="1" stroke-miterlimit="4"/><path stroke-linecap="butt" transform="matrix(0.75, 0, 0, 0.75, 94.283698, 133.812793)" fill="none" stroke-linejoin="miter" d="M 0.00194392 3.49961 L 54.830073 3.49961 " stroke="#010102" stroke-width="7" stroke-opacity="1" stroke-miterlimit="4"/><path stroke-linecap="butt" transform="matrix(0.75, 0.000000000000001429, -0.000000000000001429, 0.75, 37.500002, 140.128834)" fill="none" stroke-linejoin="miter" d="M -0.00000271667 3.500097 L 44.75 3.500097 " stroke="#010102" stroke-width="7" stroke-opacity="1" stroke-miterlimit="4"/><path stroke-linecap="butt" transform="matrix(0.75, 0, 0, 0.75, 41.953775, 165.473442)" fill="none" stroke-linejoin="miter" d="M 26.249135 3.498953 L 77.853305 3.498953 " stroke="#010102" stroke-width="7" stroke-opacity="1" stroke-miterlimit="4"/><path stroke-linecap="round" transform="matrix(0.75, 0, 0, 0.75, 41.953775, 165.473442)" fill-opacity="1" fill="#010102" fill-rule="nonzero" stroke-linejoin="round" d="M 3.499133 3.498953 C 3.499133 -2.297923 8.202258 -7.001048 13.999134 -7.001048 C 19.801218 -7.001048 24.499134 -2.297923 24.499134 3.498953 C 24.499134 9.301036 19.801218 13.998953 13.999134 13.998953 C 8.202258 13.998953 3.499133 9.301036 3.499133 3.498953 " stroke="#010102" stroke-width="7" stroke-opacity="1" stroke-miterlimit="4"/><path stroke-linecap="butt" transform="matrix(0.75, 0.000000000000001855, -0.000000000000001855, 0.75, 37.500002, 179.956073)" fill="none" stroke-linejoin="miter" d="M -0.00000271667 3.501278 L 80.427086 3.501278 " stroke="#010102" stroke-width="7" stroke-opacity="1" stroke-miterlimit="4"/><path stroke-linecap="butt" transform="matrix(0.75, 0, 0, 0.75, 81.03621, 208.116754)" fill="none" stroke-linejoin="miter" d="M 26.248596 3.500578 L 60.009015 3.500578 " stroke="#010102" stroke-width="7" stroke-opacity="1" stroke-miterlimit="4"/><path stroke-linecap="round" transform="matrix(0.75, 0, 0, 0.75, 81.03621, 208.116754)" fill-opacity="1" fill="#010102" fill-rule="nonzero" stroke-linejoin="round" d="M 3.498595 3.500578 C 3.498595 -2.301506 8.20172 -6.999423 13.998595 -6.999423 C 19.800679 -6.999423 24.498596 -2.301506 24.498596 3.500578 C 24.498596 9.297453 19.800679 14.000578 13.998595 14.000578 C 8.20172 14.000578 3.498595 9.297453 3.498595 3.500578 " stroke="#010102" stroke-width="7" stroke-opacity="1" stroke-miterlimit="4"/><path stroke-linecap="butt" transform="matrix(0.75, 0, 0, 0.75, 81.622456, 192.507688)" fill="none" stroke-linejoin="miter" d="M -0.00181625 3.500166 L 38.14402 3.500166 " stroke="#010102" stroke-width="7" stroke-opacity="1" stroke-miterlimit="4"/><path stroke-linecap="butt" transform="matrix(0.75, 0.000000000000003189, -0.000000000000003189, 0.75, 37.500002, 208.765078)" fill="none" stroke-linejoin="miter" d="M -0.00000271667 3.500729 L 40.109375 3.500729 " stroke="#010102" stroke-width="7" stroke-opacity="1" stroke-miterlimit="4"/><path stroke-linecap="butt" transform="matrix(0.75, 0, 0, 0.75, 37.500002, 197.455929)" fill="none" stroke-linejoin="miter" d="M -0.00000271667 3.50147 L 28.317707 3.50147 " stroke="#010102" stroke-width="7" stroke-opacity="1" stroke-miterlimit="4"/><path stroke-linecap="butt" transform="matrix(0.516382, -0.543921, 0.543921, 0.516382, 67.638348, 141.713355)" fill="none" stroke-linejoin="miter" d="M 0.00194677 3.499804 L 32.38507 3.500901 " stroke="#010102" stroke-width="7" stroke-opacity="1" stroke-miterlimit="4"/><path stroke-linecap="butt" transform="matrix(0.534722, -0.525901, 0.525901, 0.534722, 74.695027, 152.949907)" fill="none" stroke-linejoin="miter" d="M 0.000550624 3.498443 L 36.583557 3.499871 " stroke="#010102" stroke-width="7" stroke-opacity="1" stroke-miterlimit="4"/><path stroke-linecap="butt" transform="matrix(0.532431, -0.528221, 0.528221, 0.532431, 63.636944, 210.24841)" fill="none" stroke-linejoin="miter" d="M -0.00254851 3.50003 L 33.681041 3.498903 " stroke="#010102" stroke-width="7" stroke-opacity="1" stroke-miterlimit="4"/><path stroke-linecap="butt" transform="matrix(0.528874, -0.531782, 0.531782, 0.528874, 55.006566, 198.914341)" fill="none" stroke-linejoin="miter" d="M -0.000788297 3.499629 L 34.201946 3.501307 " stroke="#010102" stroke-width="7" stroke-opacity="1" stroke-miterlimit="4"/><path stroke-linecap="butt" transform="matrix(0, 0.75, -0.75, 0, 146.192469, 45.364989)" fill="none" stroke-linejoin="miter" d="M 26.247725 3.501418 L 77.299811 3.501418 " stroke="#010102" stroke-width="7" stroke-opacity="1" stroke-miterlimit="4"/><path stroke-linecap="round" transform="matrix(0, 0.75, -0.75, 0, 146.192469, 45.364989)" fill-opacity="1" fill="#010102" fill-rule="nonzero" stroke-linejoin="round" d="M 3.497723 3.501418 C 3.497723 -2.300666 8.200849 -6.998583 13.997724 -6.998583 C 19.799808 -6.998583 24.497725 -2.300666 24.497725 3.501418 C 24.497725 9.298293 19.799808 14.001418 13.997724 14.001418 C 8.200849 14.001418 3.497723 9.298293 3.497723 3.501418 " stroke="#010102" stroke-width="7" stroke-opacity="1" stroke-miterlimit="4"/><path stroke-linecap="butt" transform="matrix(0, 0.75, -0.75, 0, 160.303252, 37.501572)" fill="none" stroke-linejoin="miter" d="M -0.00209624 3.498086 L 94.721868 3.498086 " stroke="#010102" stroke-width="7" stroke-opacity="1" stroke-miterlimit="4"/><path stroke-linecap="butt" transform="matrix(0.000000001309, 0.75, -0.75, 0.000000001309, 171.796004, 47.160532)" fill="none" stroke-linejoin="miter" d="M -0.000501144 3.498838 L 90.431796 3.498839 " stroke="#010102" stroke-width="7" stroke-opacity="1" stroke-miterlimit="4"/><path stroke-linecap="butt" transform="matrix(0, 0.75, -0.75, 0, 189.731915, 49.750262)" fill="none" stroke-linejoin="miter" d="M -0.000348711 3.501929 L 32.801737 3.501929 " stroke="#010102" stroke-width="7" stroke-opacity="1" stroke-miterlimit="4"/><path stroke-linecap="butt" transform="matrix(-0.583855, 0.470758, -0.470758, -0.583855, 188.753327, 77.89109)" fill="none" stroke-linejoin="miter" d="M 0.000262925 3.500111 L 31.502845 3.50348 " stroke="#010102" stroke-width="7" stroke-opacity="1" stroke-miterlimit="4"/><g clip-path="url(#9a68f5fb01)"><g clip-path="url(#d2b0c4a131)"><g clip-path="url(#de0196463c)"><g transform="matrix(1, 0, 0, 1, 185, 73)"><g clip-path="url(#4a11e777f0)"><g clip-path="url(#094869b232)"><g clip-path="url(#bec624c971)"><g clip-path="url(#e364bb03db)"><path fill="#010102" d="M -0.4375 3.710938 L 0.851562 -0.367188 L 4.945312 0.925781 L 3.65625 5.003906 Z M -0.4375 3.710938 " fill-opacity="1" fill-rule="nonzero"/></g></g></g></g></g></g></g></g><path stroke-linecap="butt" transform="matrix(-0.530558, 0.530102, -0.530102, -0.530558, 146.391703, 102.926338)" fill="none" stroke-linejoin="miter" d="M 0.00199747 3.500246 L 21.730803 3.498262 " stroke="#010102" stroke-width="7" stroke-opacity="1" stroke-miterlimit="4"/><path stroke-linecap="butt" transform="matrix(-0.53033, -0.53033, 0.53033, -0.53033, 142.563276, 122.849296)" fill="none" stroke-linejoin="miter" d="M 0.00227747 3.49952 L 21.340699 3.49952 " stroke="#010102" stroke-width="7" stroke-opacity="1" stroke-miterlimit="4"/><path stroke-linecap="butt" transform="matrix(0, 0.75, -0.75, 0, 163.724173, 241.280346)" fill="none" stroke-linejoin="miter" d="M 0.00120566 3.502022 L 79.683503 3.502022 " stroke="#010102" stroke-width="7" stroke-opacity="1" stroke-miterlimit="4"/><path stroke-linecap="round" transform="matrix(0, 0.75, -0.75, 0, 163.724173, 241.280346)" fill-opacity="1" fill="#010102" fill-rule="nonzero" stroke-linejoin="round" d="M 102.433504 3.502022 C 102.433504 9.298898 97.730379 14.002023 91.933503 14.002023 C 86.13142 14.002023 81.433503 9.298898 81.433503 3.502022 C 81.433503 -2.300061 86.13142 -6.997978 91.933503 -6.997978 C 97.730379 -6.997978 102.433504 -2.300061 102.433504 3.502022 " stroke="#010102" stroke-width="7" stroke-opacity="1" stroke-miterlimit="4"/><path stroke-linecap="butt" transform="matrix(0, 0.75, -0.75, 0, 174.066747, 251.959231)" fill="none" stroke-linejoin="miter" d="M 0.00227473 3.500454 L 65.429362 3.500454 " stroke="#010102" stroke-width="7" stroke-opacity="1" stroke-miterlimit="4"/><path stroke-linecap="butt" transform="matrix(0, 0.75, -0.75, 0, 147.108072, 273.278713)" fill="none" stroke-linejoin="miter" d="M -0.00182601 3.498262 L 35.951301 3.498262 " stroke="#010102" stroke-width="7" stroke-opacity="1" stroke-miterlimit="4"/><path stroke-linecap="butt" transform="matrix(0, 0.75, -0.75, 0, 133.774537, 267.22677)" fill="none" stroke-linejoin="miter" d="M -0.000277269 3.501466 L 44.718476 3.501466 " stroke="#010102" stroke-width="7" stroke-opacity="1" stroke-miterlimit="4"/><path stroke-linecap="butt" transform="matrix(0, 0.75, -0.75, 0, 149.448568, 227.386627)" fill="none" stroke-linejoin="miter" d="M 0.000122776 3.499133 L 35.052208 3.499133 " stroke="#010102" stroke-width="7" stroke-opacity="1" stroke-miterlimit="4"/><path stroke-linecap="butt" transform="matrix(0, 0.75, -0.75, 0, 188.408591, 220.882178)" fill="none" stroke-linejoin="miter" d="M 0.000845606 3.497914 L 24.318556 3.497914 " stroke="#010102" stroke-width="7" stroke-opacity="1" stroke-miterlimit="4"/><path stroke-linecap="butt" transform="matrix(-0.525196, 0.535415, -0.535415, -0.525196, 149.288419, 253.583947)" fill="none" stroke-linejoin="miter" d="M 0.000694321 3.500074 L 31.685712 3.49966 " stroke="#010102" stroke-width="7" stroke-opacity="1" stroke-miterlimit="4"/><path stroke-linecap="butt" transform="matrix(-0.530857, 0.529802, -0.529802, -0.530857, 162.616079, 259.766935)" fill="none" stroke-linejoin="miter" d="M 0.00119852 3.498896 L 31.423271 3.497115 " stroke="#010102" stroke-width="7" stroke-opacity="1" stroke-miterlimit="4"/><path stroke-linecap="butt" transform="matrix(-0.521415, 0.539098, -0.539098, -0.521415, 188.483606, 238.756405)" fill="none" stroke-linejoin="miter" d="M -0.00252062 3.500781 L 30.248918 3.500579 " stroke="#010102" stroke-width="7" stroke-opacity="1" stroke-miterlimit="4"/><path stroke-linecap="butt" transform="matrix(0.75, -0.000000000000002325, 0.000000000000002325, 0.75, 183.67404, 125.496525)" fill="none" stroke-linejoin="miter" d="M 0.00232215 3.499426 L 37.2367 3.499426 " stroke="#010102" stroke-width="7" stroke-opacity="1" stroke-miterlimit="4"/><path stroke-linecap="butt" transform="matrix(0.749999, -0.000832962, 0.000832962, 0.749999, 225.864657, 164.837627)" fill="none" stroke-linejoin="miter" d="M -0.000510479 3.497749 L 122.588113 3.498482 " stroke="#010102" stroke-width="7" stroke-opacity="1" stroke-miterlimit="4"/><path stroke-linecap="round" transform="matrix(0.749999, -0.000832962, 0.000832962, 0.749999, 225.864657, 164.837627)" fill-opacity="1" fill="#010102" fill-rule="nonzero" stroke-linejoin="round" d="M 145.338129 3.497706 C 145.336894 9.299792 140.638965 13.997703 134.836873 14.001676 C 129.039995 14.000446 124.336882 9.297303 124.338112 3.500425 C 124.339342 -2.296452 129.042485 -6.999565 134.839362 -6.998336 C 140.636246 -7.002314 145.339359 -2.299171 145.338129 3.497706 " stroke="#010102" stroke-width="7" stroke-opacity="1" stroke-miterlimit="4"/><path stroke-linecap="butt" transform="matrix(0.517154, -0.543186, 0.543186, 0.517154, 174.736721, 217.943424)" fill="none" stroke-linejoin="miter" d="M -0.00148933 3.499292 L 97.715472 3.500077 " stroke="#010102" stroke-width="7" stroke-opacity="1" stroke-miterlimit="4"/><path stroke-linecap="butt" transform="matrix(-0.53147, -0.529188, 0.529188, -0.53147, 177.964094, 160.47459)" fill="none" stroke-linejoin="miter" d="M 0.000627965 10.498672 L 56.517734 10.502407 " stroke="#5ce1e6" stroke-width="21" stroke-opacity="1" stroke-miterlimit="4"/><path stroke-linecap="butt" transform="matrix(-0.52676, 0.533876, -0.533876, -0.52676, 169.31809, 129.734303)" fill="none" stroke-linejoin="miter" d="M 0.0011737 10.501563 L 62.865133 10.499798 " stroke="#5ce1e6" stroke-width="21" stroke-opacity="1" stroke-miterlimit="4"/><path stroke-linecap="butt" transform="matrix(-0.53008, 0.53058, -0.53058, -0.53008, 192.699573, 197.123922)" fill="none" stroke-linejoin="miter" d="M 0.0000914363 10.499119 L 56.005168 10.499696 " stroke="#5ce1e6" stroke-width="21" stroke-opacity="1" stroke-miterlimit="4"/><path stroke-linecap="butt" transform="matrix(-0.538626, -0.521902, 0.521902, -0.538626, 181.434631, 207.173982)" fill="none" stroke-linejoin="miter" d="M -0.000528481 10.498422 L 104.380689 10.498059 " stroke="#5ce1e6" stroke-width="21" stroke-opacity="1" stroke-miterlimit="4"/><path stroke-linecap="butt" transform="matrix(-0.525553, -0.535064, 0.535064, -0.525553, 162.081498, 226.120356)" fill="none" stroke-linejoin="miter" d="M 0.000882191 10.500021 L 54.280874 10.499436 " stroke="#5ce1e6" stroke-width="21" stroke-opacity="1" stroke-miterlimit="4"/><path stroke-linecap="butt" transform="matrix(0.75, 0, 0, 0.75, 187.913855, 192.493888)" fill="none" stroke-linejoin="miter" d="M 0.000276186 4.497733 L 45.026321 4.497733 " stroke="#5ce1e6" stroke-width="9" stroke-opacity="1" stroke-miterlimit="4"/></svg>